<?xml version="1.0" encoding="utf-8"?>
<!-- Generator: Adobe Illustrator 19.0.0, SVG Export Plug-In . SVG Version: 6.00 Build 0)  -->
<svg version="1.1" xmlns="http://www.w3.org/2000/svg" xmlns:xlink="http://www.w3.org/1999/xlink" x="0px" y="0px"
	 viewBox="0 0 749.9 749.9" style="enable-background:new 0 0 749.9 749.9;" xml:space="preserve">
<style type="text/css">
	.st0{enable-background:new    ;}
	.st1{fill-rule:evenodd;clip-rule:evenodd;fill:#999999;}
	.st2{fill-rule:evenodd;clip-rule:evenodd;fill:#616161;}
	.st3{fill-rule:evenodd;clip-rule:evenodd;fill:#790000;}
</style>
<g id="base_1_" class="st0">
	<g id="base">
		<g>
			<path class="st1" d="M703.1,132l-48.8-51.8l-10.5-3.1l-47.3-45.7c-45.3,8.1-90.1,13-132.8,15.7c-26,1.6-54.9,2.7-86,2.8
				c-34.6,0.1-66.6-1.1-95-2.8c-42.3-2.7-86.6-7.6-131.4-15.7L104,77.2l-7.6,3l-53.3,53.3c0,0-59.4,185.9-1.5,412.6l30.5,32
				l16.8,9.1c0,0,56.4,61.9,146.3,92.9l57.9-7.6l13.7,31.4l0.1,3.4c15.9,4.8,31.4,7.4,45.9,8.6c23.9,2.2,55.3,1.6,88.2-8.3l0.1-3.8
				l13.7-31.4l57.9,7.6c89.9-31,146.4-92.8,146.4-92.8l18.1-8.9l29-32C764,319.5,703.1,132,703.1,132z M285.4,626.8
				c0,0-36.8-12.9-74.7-44.2l44.2-57.9v-25.9l35.1,22.8L285.4,626.8z M462.2,626.8l-4.6-105.1l35.1-22.8v25.9l44.2,57.9
				C499,614,462.2,626.8,462.2,626.8z"/>
		</g>
	</g>
</g>
<g id="detail_1_" class="st0">
	<g id="detail">
		<g>
			<path class="st2" d="M236.6,199l-15.2-20.2c16.1-16.3,72.6-67.2,152.2-67.9c80.7,0.7,137.2,53.5,151.9,68.8L511,199l18.3,18.3
				l62.5-57.9c0,0-34.2-35.5-67.1-79.2c0,0-60.3-25.1-150.4-24.9c-0.2,0-0.4,0-0.5,0c-0.2,0-0.4,0-0.5,0
				c-90.1-0.2-150.4,24.9-150.4,24.9c-32.9,43.6-67.1,79.2-67.1,79.2l62.5,57.9L236.6,199z M529.3,174.6l-0.4,0.5l0-0.8
				C529,174.4,529.2,174.5,529.3,174.6z M181.8,346.7l-97.6-24.4c-5.8,101.1,39.6,143.1,39.6,143.1l39.6-21.3l-25.9-83.7l45.7,1.5
				L181.8,346.7z M623.8,465.4c0,0,45.5-42,39.6-143.1l-97.6,24.4l-1.5,15.2l45.7-1.5l-25.9,83.7L623.8,465.4z M665,264.5l-10.7-32
				l-44.2-4.6l-16.8,6.1l18.3,47.2L665,264.5z M82.7,264.5l53.3,16.7l18.3-47.2l-16.8-6.1l-44.2,4.6L82.7,264.5z M658.9,526.3
				l-16.8,4.6l-7.6,12.2l7.6,9.1l-30.5,28.9l-6.1-3l-10.7,12.2l-4.6,19.8c0,0-64.8,42-108.2,53.3l1.5,7.6c0,0,129.7-34.3,182.9-134
				L658.9,526.3z M710.7,130.5l-56.4-53.3h-9.1c0,0,31.7,22.9,41.2,71.6L700,337.5l-13.7,18.3l-6.1,127.9l12.2,10.7
				c0,0-4.3,45.2-27.4,89.8l3.3,0.7l8.9-2.2l33.5-35C768.6,320.9,710.7,130.5,710.7,130.5z M67.5,483.7l-6.1-127.9l-13.7-18.3
				l13.7-188.8c9.5-48.7,41.2-71.6,41.2-71.6h-9.1L37,130.5c0,0-57.9,190.5,0,417.2l33.5,35l8.9,2.2l3.3-0.7
				c-23.1-44.7-27.4-89.8-27.4-89.8L67.5,483.7z M370.8,269c-37.9,0-68.6,30.7-68.6,68.5c0,37.8,30.7,68.5,68.6,68.5
				c37.9,0,68.6-30.7,68.6-68.5C439.4,299.7,408.7,269,370.8,269z M396.7,477.6v-27.4l-22.9,0.8l-25.9-2.3l3,28.9l-6.1,105.1
				c0,0,0.1,0,0.2,0.1l-0.2,1.4c3.1,1.1,6.1,2,9,2.8c4.8,1.6,11.4,3,19.9,2.9c8.5,0.1,15.2-1.3,19.9-2.9c2.9-0.8,5.9-1.7,9-2.8
				l-0.2-1.4c0.1-0.1,0.2-0.1,0.2-0.1L396.7,477.6z M152.8,590.3l-10.7-12.2l-6.1,3l-30.5-28.9l7.6-9.1l-7.6-12.2l-16.8-4.6
				L81.2,537c53.2,99.7,182.9,134,182.9,134l1.5-7.6c-43.4-11.3-108.2-53.3-108.2-53.3L152.8,590.3z"/>
		</g>
	</g>
</g>
<g id="gear_eye_1_" class="st0">
	<g id="gear_eye">
		<g>
			<path class="st3" d="M513.8,348.4c0.2-3.3,0.4-6.6,0.4-10c0-4-0.2-7.9-0.5-11.8l-39.6-17.4c-2.4-8.2-5.7-16-9.8-23.3l15.3-39.3
				c-5.1-5.8-10.7-11.2-16.6-16l-39.3,15.3c-7.1-3.9-14.6-7-22.5-9.3l-16.3-36.9c-3.2-0.2-6.5-0.3-9.8-0.3c-5.2,0-10.2,0.3-15.3,0.8
				l-16,36.3c-8,2.2-15.6,5.4-22.7,9.3L285.3,232c-6.8,5.7-13,12-18.6,18.9l13.5,34.8c-4.3,7.4-7.6,15.3-10,23.6l-33.8,14.9
				c-0.5,4.7-0.7,9.4-0.7,14.2c0,4.2,0.2,8.3,0.6,12.4l33.3,14.7c2.3,8.9,5.8,17.3,10.2,25.1l-13.5,34.7
				c5.3,6.6,11.2,12.7,17.6,18.3l34.9-13.5c8,4.7,16.7,8.4,25.9,10.8l15.8,35.8c4.7,0.5,9.6,0.7,14.4,0.7c3,0,6-0.1,9-0.3l16-36.3
				c9.1-2.5,17.8-6.1,25.7-10.8l38.6,15c5.6-4.7,10.9-9.8,15.7-15.4l-15.3-39.3c4.3-7.7,7.7-16,10.1-24.8L513.8,348.4z M372.2,404.2
				c-36.3,0-65.7-29.4-65.7-65.6s29.4-65.6,65.7-65.6c36.3,0,65.7,29.4,65.7,65.6S408.5,404.2,372.2,404.2z"/>
		</g>
	</g>
</g>
</svg>
